<svg width="105" height="105" viewBox="0 0 105 105" fill="none" xmlns="http://www.w3.org/2000/svg">
<path d="M52.1621 63.6855L92.8256 54.6554L93.8969 10.5762L52.1621 21.9021L52.1621 63.6855Z" fill="white"/>
<rect x="92.291" y="7.02539" width="4.8977" height="48.977" rx="2.44885" fill="#333333"/>
<path d="M94.1058 51.2462C95.4122 50.8961 96.755 51.6714 97.105 52.9778C97.4551 54.2841 96.6798 55.6269 95.3734 55.977L52.7962 67.3855C51.4898 67.7356 50.147 66.9603 49.7969 65.6539C49.4469 64.3475 50.2222 63.0048 51.5285 62.6547L94.1058 51.2462Z" fill="#333333"/>
<path d="M94.1058 7.10944C95.4122 6.7594 96.755 7.53466 97.105 8.84104C97.4551 10.1474 96.6798 11.4902 95.3734 11.8403L52.7962 23.2488C51.4898 23.5988 50.147 22.8236 49.7969 21.5172C49.4469 20.2108 50.2222 18.868 51.5285 18.518L94.1058 7.10944Z" fill="#333333"/>
<rect x="49.7129" y="18.4932" width="4.8977" height="48.977" rx="2.44885" fill="#333333"/>
<path d="M52.1621 63.6855L11.4987 54.6554L10.4273 10.5762L52.1621 21.9021L52.1621 63.6855Z" fill="white"/>
<rect width="4.8977" height="48.977" rx="2.44885" transform="matrix(-1 -8.74228e-08 -8.74228e-08 1 12.0332 7.02539)" fill="#333333"/>
<path d="M10.2184 51.2471C8.91201 50.8971 7.56922 51.6724 7.21918 52.9787C6.86913 54.2851 7.6444 55.6279 8.95077 55.9779L51.5281 67.3865C52.8344 67.7365 54.1772 66.9613 54.5273 65.6549C54.8773 64.3485 54.1021 63.0057 52.7957 62.6557L10.2184 51.2471Z" fill="#333333"/>
<path d="M10.2184 7.10944C8.91201 6.75939 7.56922 7.53466 7.21918 8.84103C6.86913 10.1474 7.6444 11.4902 8.95077 11.8402L51.5281 23.2488C52.8344 23.5988 54.1772 22.8236 54.5273 21.5172C54.8773 20.2108 54.1021 18.868 52.7957 18.518L10.2184 7.10944Z" fill="#333333"/>
<rect width="4.8977" height="48.977" rx="2.44885" transform="matrix(-1 -8.74228e-08 -8.74228e-08 1 54.6113 18.4932)" fill="#333333"/>
<path d="M2.57617 19.8291L43.2396 28.8592L44.311 72.9385L2.57617 61.6126V19.8291Z" fill="white"/>
<rect width="4.8977" height="48.977" rx="2.44885" transform="matrix(1 0 0 -1 42.7051 76.4893)" fill="#333333"/>
<path d="M44.5199 32.2675C45.8263 32.6176 47.1691 31.8423 47.5191 30.5359C47.8691 29.2295 47.0939 27.8867 45.7875 27.5367L3.21022 16.1282C1.90384 15.7781 0.561046 16.5534 0.211003 17.8597C-0.139039 19.1661 0.636223 20.5089 1.9426 20.859L44.5199 32.2675Z" fill="#333333"/>
<path d="M44.5199 76.4042C45.8263 76.7543 47.1691 75.979 47.5191 74.6726C47.8691 73.3663 47.0939 72.0235 45.7875 71.6734L3.21022 60.2649C1.90384 59.9148 0.561046 60.6901 0.211003 61.9965C-0.139039 63.3028 0.636223 64.6456 1.9426 64.9957L44.5199 76.4042Z" fill="#333333"/>
<rect width="4.8977" height="48.977" rx="2.44885" transform="matrix(1 0 0 -1 0.126953 65.0215)" fill="#333333"/>
<path d="M45.1543 31.2969L4.49085 40.327L3.41948 84.4063L45.1543 73.0803V31.2969Z" fill="white"/>
<rect x="5.02539" y="87.957" width="4.8977" height="48.977" rx="2.44885" transform="rotate(180 5.02539 87.957)" fill="#333333"/>
<path d="M3.21058 43.7353C1.9042 44.0853 0.561409 43.3101 0.211365 42.0037C-0.13868 40.6973 0.636585 39.3545 1.94296 39.0045L44.5203 27.5959C45.8266 27.2459 47.1694 28.0211 47.5195 29.3275C47.8695 30.6339 47.0942 31.9767 45.7879 32.3267L3.21058 43.7353Z" fill="#333333"/>
<path d="M3.20863 87.872C1.90225 88.222 0.559456 87.4468 0.209412 86.1404C-0.140633 84.834 0.634632 83.4912 1.94101 83.1412L44.5183 71.7326C45.8247 71.3826 47.1675 72.1579 47.5175 73.4642C47.8676 74.7706 47.0923 76.1134 45.7859 76.4635L3.20863 87.872Z" fill="#333333"/>
<rect x="47.6035" y="76.4893" width="4.8977" height="48.977" rx="2.44885" transform="rotate(180 47.6035 76.4893)" fill="#333333"/>
<path d="M102.426 19.8301L61.7623 28.8602L60.691 72.9395L102.426 61.6135V19.8301Z" fill="white"/>
<rect x="62.2949" y="76.4902" width="4.8977" height="48.977" rx="2.44885" transform="rotate(180 62.2949 76.4902)" fill="#333333"/>
<path d="M60.4821 32.2685C59.1757 32.6185 57.8329 31.8433 57.4828 30.5369C57.1328 29.2305 57.9081 27.8877 59.2144 27.5377L101.792 16.1291C103.098 15.7791 104.441 16.5543 104.791 17.8607C105.141 19.1671 104.366 20.5099 103.059 20.8599L60.4821 32.2685Z" fill="#333333"/>
<path d="M60.4821 76.4062C59.1757 76.7562 57.8329 75.981 57.4828 74.6746C57.1328 73.3682 57.9081 72.0254 59.2144 71.6754L101.792 60.2668C103.098 59.9168 104.441 60.692 104.791 61.9984C105.141 63.3048 104.366 64.6476 103.059 64.9976L60.4821 76.4062Z" fill="#333333"/>
<rect x="104.875" y="65.0225" width="4.8977" height="48.977" rx="2.44885" transform="rotate(180 104.875 65.0225)" fill="#333333"/>
<path d="M59.8496 31.2969L100.513 40.327L101.584 84.4063L59.8496 73.0803V31.2969Z" fill="white"/>
<rect width="4.8977" height="48.977" rx="2.44885" transform="matrix(1 0 0 -1 99.9785 87.957)" fill="#333333"/>
<path d="M101.793 43.7353C103.1 44.0853 104.442 43.3101 104.793 42.0037C105.143 40.6973 104.367 39.3545 103.061 39.0045L60.4837 27.5959C59.1773 27.2459 57.8345 28.0211 57.4844 29.3275C57.1344 30.6339 57.9097 31.9767 59.216 32.3267L101.793 43.7353Z" fill="#333333"/>
<path d="M101.793 87.872C103.1 88.222 104.442 87.4468 104.793 86.1404C105.143 84.834 104.367 83.4912 103.061 83.1412L60.4837 71.7326C59.1773 71.3826 57.8345 72.1579 57.4844 73.4642C57.1344 74.7706 57.9097 76.1134 59.216 76.4635L101.793 87.872Z" fill="#333333"/>
<rect width="4.8977" height="48.977" rx="2.44885" transform="matrix(1 0 0 -1 57.4004 76.4893)" fill="#333333"/>
<path d="M59.8496 31.2969L100.513 40.327L101.584 84.4063L59.8496 73.0803V31.2969Z" fill="white"/>
<rect width="4.8977" height="48.977" rx="2.44885" transform="matrix(1 0 0 -1 99.9785 87.957)" fill="#333333"/>
<path d="M101.793 43.7353C103.1 44.0853 104.442 43.3101 104.793 42.0037C105.143 40.6973 104.367 39.3545 103.061 39.0045L60.4837 27.5959C59.1773 27.2459 57.8345 28.0211 57.4844 29.3275C57.1344 30.6339 57.9097 31.9767 59.216 32.3267L101.793 43.7353Z" fill="#333333"/>
<path d="M101.793 87.872C103.1 88.222 104.442 87.4468 104.793 86.1404C105.143 84.834 104.367 83.4912 103.061 83.1412L60.4837 71.7326C59.1773 71.3826 57.8345 72.1579 57.4844 73.4642C57.1344 74.7706 57.9097 76.1134 59.216 76.4635L101.793 87.872Z" fill="#333333"/>
<rect width="4.8977" height="48.977" rx="2.44885" transform="matrix(1 0 0 -1 57.4004 76.4893)" fill="#333333"/>
<path d="M52.1621 41.3145L11.4987 50.3446L10.4273 94.4238L52.1621 83.0979V41.3145Z" fill="white"/>
<rect x="12.0332" y="97.9756" width="4.8977" height="48.977" rx="2.44885" transform="rotate(180 12.0332 97.9756)" fill="#333333"/>
<path d="M10.2184 53.7538C8.91201 54.1039 7.56922 53.3286 7.21918 52.0222C6.86913 50.7159 7.6444 49.3731 8.95078 49.023L51.5281 37.6145C52.8344 37.2644 54.1772 38.0397 54.5273 39.3461C54.8773 40.6525 54.1021 41.9952 52.7957 42.3453L10.2184 53.7538Z" fill="#333333"/>
<path d="M10.2184 97.8906C8.91201 98.2406 7.56922 97.4653 7.21918 96.159C6.86913 94.8526 7.6444 93.5098 8.95078 93.1597L51.5281 81.7512C52.8344 81.4012 54.1772 82.1764 54.5273 83.4828C54.8773 84.7892 54.1021 86.132 52.7957 86.482L10.2184 97.8906Z" fill="#333333"/>
<rect x="54.6113" y="86.5078" width="4.8977" height="48.977" rx="2.44885" transform="rotate(180 54.6113 86.5078)" fill="#333333"/>
<path d="M52.1621 41.3145L92.8256 50.3446L93.8969 94.4238L52.1621 83.0979V41.3145Z" fill="white"/>
<rect width="4.8977" height="48.977" rx="2.44885" transform="matrix(1 0 0 -1 92.291 97.9746)" fill="#333333"/>
<path d="M94.1058 53.7529C95.4122 54.1029 96.755 53.3276 97.105 52.0213C97.4551 50.7149 96.6798 49.3721 95.3734 49.0221L52.7962 37.6135C51.4898 37.2635 50.147 38.0387 49.7969 39.3451C49.4469 40.6515 50.2222 41.9943 51.5285 42.3443L94.1058 53.7529Z" fill="#333333"/>
<path d="M94.1058 97.8906C95.4122 98.2406 96.755 97.4653 97.105 96.159C97.4551 94.8526 96.6798 93.5098 95.3734 93.1597L52.7962 81.7512C51.4898 81.4012 50.147 82.1764 49.7969 83.4828C49.4469 84.7892 50.2222 86.132 51.5285 86.482L94.1058 97.8906Z" fill="#333333"/>
<rect width="4.8977" height="48.977" rx="2.44885" transform="matrix(1 0 0 -1 49.7129 86.5068)" fill="#333333"/>
</svg>
