<svg width="3383" height="648" viewBox="0 0 3383 648" fill="none" xmlns="http://www.w3.org/2000/svg">
<path d="M975.401 410.217C1004.13 410.217 1025.13 395.851 1031.76 374.487L1010.76 368.593C1005.24 383.327 992.437 390.694 975.401 390.694C949.893 390.694 932.304 374.21 931.291 343.913H1033.97V334.705C1033.97 282.03 1002.66 263.981 973.191 263.981C934.882 263.981 909.466 294.186 909.466 337.651C909.466 381.117 934.514 410.217 975.401 410.217ZM931.291 325.127C932.764 303.118 948.327 283.504 973.191 283.504C996.765 283.504 1011.87 301.185 1011.87 325.127H931.291ZM1159.44 297.501C1152.63 277.426 1137.34 263.981 1109.34 263.981C1079.51 263.981 1057.41 280.925 1057.41 304.868C1057.41 324.391 1069.01 337.467 1094.98 343.545L1118.55 349.07C1132.83 352.386 1139.55 359.2 1139.55 368.961C1139.55 381.117 1126.66 391.063 1106.4 391.063C1088.63 391.063 1077.48 383.419 1073.61 368.225L1052.99 373.382C1058.05 397.417 1077.85 410.217 1106.77 410.217C1139.64 410.217 1162.02 392.26 1162.02 367.856C1162.02 348.149 1149.68 335.718 1124.45 329.548L1103.45 324.391C1086.69 320.247 1079.14 314.629 1079.14 303.763C1079.14 291.607 1092.03 282.767 1109.34 282.767C1128.32 282.767 1136.14 293.265 1139.92 303.026L1159.44 297.501ZM1305.2 460.313V265.823H1284.2V288.292H1281.62C1276.83 280.925 1268.36 263.981 1240.73 263.981C1205 263.981 1180.32 292.344 1180.32 336.915C1180.32 381.854 1205 410.217 1240.37 410.217C1267.62 410.217 1276.83 393.273 1281.62 385.537H1283.46V460.313H1305.2ZM1283.83 336.546C1283.83 368.593 1269.46 390.694 1243.31 390.694C1216.05 390.694 1202.06 366.751 1202.06 336.546C1202.06 306.71 1215.69 283.504 1243.31 283.504C1269.83 283.504 1283.83 304.868 1283.83 336.546ZM1426.34 349.439C1426.34 375.96 1406.08 388.116 1389.87 388.116C1371.82 388.116 1358.93 374.855 1358.93 354.227V265.823H1337.2V355.701C1337.2 391.799 1356.35 409.112 1382.87 409.112C1404.24 409.112 1418.23 397.693 1424.87 383.327H1426.34V407.27H1448.07V265.823H1426.34V349.439ZM1480.1 407.27H1501.83V265.823H1480.1V407.27ZM1491.15 242.248C1499.62 242.248 1506.62 235.618 1506.62 227.514C1506.62 219.41 1499.62 212.78 1491.15 212.78C1482.68 212.78 1475.68 219.41 1475.68 227.514C1475.68 235.618 1482.68 242.248 1491.15 242.248ZM1555.59 322.181C1555.59 297.501 1570.87 283.504 1591.69 283.504C1611.85 283.504 1624.1 296.672 1624.1 318.865V407.27H1645.83V317.392C1645.83 281.294 1626.59 263.981 1597.95 263.981C1576.58 263.981 1563.32 273.558 1556.69 287.924H1554.85V265.823H1533.86V407.27H1555.59V322.181ZM1737.07 410.217C1765.8 410.217 1786.8 395.851 1793.43 374.487L1772.43 368.593C1766.91 383.327 1754.11 390.694 1737.07 390.694C1711.56 390.694 1693.98 374.21 1692.96 343.913H1795.64V334.705C1795.64 282.03 1764.33 263.981 1734.86 263.981C1696.55 263.981 1671.14 294.186 1671.14 337.651C1671.14 381.117 1696.19 410.217 1737.07 410.217ZM1692.96 325.127C1694.44 303.118 1710 283.504 1734.86 283.504C1758.44 283.504 1773.54 301.185 1773.54 325.127H1692.96ZM1820.92 407.27H1842.65V317.76C1842.65 298.606 1857.76 284.609 1878.38 284.609C1884.18 284.609 1890.17 285.714 1891.64 286.082V263.981C1889.16 263.797 1883.45 263.613 1880.23 263.613C1863.28 263.613 1848.55 273.19 1843.39 287.187H1841.92V265.823H1820.92V407.27ZM1962.78 410.217C2001.09 410.217 2026.88 381.117 2026.88 337.283C2026.88 293.081 2001.09 263.981 1962.78 263.981C1924.48 263.981 1898.69 293.081 1898.69 337.283C1898.69 381.117 1924.48 410.217 1962.78 410.217ZM1962.78 390.694C1933.68 390.694 1920.42 365.646 1920.42 337.283C1920.42 308.92 1933.68 283.504 1962.78 283.504C1991.88 283.504 2005.14 308.92 2005.14 337.283C2005.14 365.646 1991.88 390.694 1962.78 390.694ZM2048.04 407.27H2087.27V322.365C2087.27 306.71 2097.21 296.304 2110.29 296.304C2123.18 296.304 2131.84 305.144 2131.84 319.05V407.27H2169.87V320.891C2169.87 306.249 2178.25 296.304 2192.52 296.304C2205.05 296.304 2214.44 304.131 2214.44 319.878V407.27H2253.58V312.143C2253.58 281.478 2235.34 263.981 2209.01 263.981C2188.29 263.981 2172.17 274.571 2166.37 290.779H2164.9C2160.38 274.387 2145.93 263.981 2126.5 263.981C2107.43 263.981 2092.98 274.111 2087.08 290.779H2085.42V265.823H2048.04V407.27ZM2341.25 410.033C2376.24 410.033 2399.81 392.996 2405.34 366.751L2369.06 364.357C2365.1 375.131 2354.97 380.749 2341.89 380.749C2322.28 380.749 2309.84 367.764 2309.84 346.676V346.584H2406.17V335.81C2406.17 287.74 2377.07 263.981 2339.68 263.981C2298.06 263.981 2271.08 293.541 2271.08 337.191C2271.08 382.038 2297.69 410.033 2341.25 410.033ZM2309.84 322.273C2310.67 306.157 2322.92 293.265 2340.33 293.265C2357.36 293.265 2369.15 305.421 2369.24 322.273H2309.84ZM2454.49 265.823H2413.97L2454.49 336.546L2412.5 407.27H2453.02L2480.46 358.371L2508.37 407.27H2548.42L2506.34 336.546L2547.32 265.823H2507.08L2480.46 315.274L2454.49 265.823ZM2562.84 407.27H2602.07V265.823H2562.84V407.27ZM2582.54 247.589C2594.24 247.589 2603.82 238.657 2603.82 227.698C2603.82 216.832 2594.24 207.899 2582.54 207.899C2570.94 207.899 2561.36 216.832 2561.36 227.698C2561.36 238.657 2570.94 247.589 2582.54 247.589ZM2689.62 410.033C2727.29 410.033 2750.95 387.932 2752.79 355.424H2715.77C2713.47 370.527 2703.53 378.999 2690.08 378.999C2671.76 378.999 2659.88 363.62 2659.88 336.546C2659.88 309.841 2671.85 294.554 2690.08 294.554C2704.45 294.554 2713.66 304.039 2715.77 318.129H2752.79C2751.14 285.438 2726.36 263.981 2689.44 263.981C2646.52 263.981 2620 293.725 2620 337.099C2620 380.104 2646.06 410.033 2689.62 410.033ZM2810.47 409.941C2831.37 409.941 2844.91 400.824 2851.81 387.655H2852.92V407.27H2890.12V311.867C2890.12 278.163 2861.57 263.981 2830.08 263.981C2796.19 263.981 2773.91 280.188 2768.47 305.973L2804.76 308.92C2807.43 299.527 2815.81 292.62 2829.9 292.62C2843.25 292.62 2850.89 299.343 2850.89 310.946V311.498C2850.89 320.615 2841.22 321.812 2816.64 324.207C2788.64 326.785 2763.5 336.178 2763.5 367.764C2763.5 395.759 2783.48 409.941 2810.47 409.941ZM2821.7 382.867C2809.64 382.867 2800.98 377.249 2800.98 366.475C2800.98 355.424 2810.1 349.991 2823.91 348.057C2832.47 346.86 2846.47 344.834 2851.17 341.703V356.714C2851.17 371.54 2838.92 382.867 2821.7 382.867ZM2952.01 325.496C2952.1 307.262 2962.97 296.58 2978.8 296.58C2994.55 296.58 3004.04 306.894 3003.94 324.207V407.27H3043.17V317.208C3043.17 284.24 3023.84 263.981 2994.37 263.981C2973.37 263.981 2958.18 274.295 2951.82 290.779H2950.17V265.823H2912.78V407.27H2952.01V325.496ZM3130.22 410.033C3173.14 410.033 3199.84 380.657 3199.84 337.099C3199.84 293.265 3173.14 263.981 3130.22 263.981C3087.31 263.981 3060.6 293.265 3060.6 337.099C3060.6 380.657 3087.31 410.033 3130.22 410.033ZM3130.41 379.644C3110.61 379.644 3100.48 361.502 3100.48 336.823C3100.48 312.143 3110.61 293.91 3130.41 293.91C3149.84 293.91 3159.97 312.143 3159.97 336.823C3159.97 361.502 3149.84 379.644 3130.41 379.644Z" fill="#111111"/>
<path d="M713.126 130.539C713.126 130.316 713.111 130.078 713.096 129.855C713.081 129.573 713.037 129.305 713.007 129.023C712.977 128.844 712.962 128.681 712.932 128.502C712.873 128.175 712.798 127.848 712.724 127.521C712.709 127.447 712.694 127.373 712.679 127.298C712.664 127.254 712.649 127.209 712.635 127.15C712.53 126.793 712.426 126.451 712.292 126.109C712.247 126.005 712.217 125.901 712.173 125.797C712.039 125.47 711.905 125.143 711.756 124.83C711.696 124.711 711.652 124.607 711.592 124.488C711.443 124.191 711.279 123.924 711.115 123.641C711.041 123.522 710.966 123.388 710.892 123.269C710.728 123.017 710.549 122.764 710.371 122.526C710.281 122.407 710.192 122.273 710.088 122.154C709.894 121.917 709.7 121.694 709.492 121.471C709.388 121.352 709.298 121.248 709.194 121.144C708.971 120.921 708.747 120.698 708.509 120.489C708.419 120.4 708.315 120.311 708.226 120.222C707.973 119.999 707.69 119.791 707.421 119.583C707.332 119.523 707.258 119.464 707.168 119.404C706.87 119.196 706.558 119.003 706.245 118.81C706.17 118.765 706.111 118.72 706.036 118.676C705.709 118.497 705.381 118.319 705.038 118.17C704.964 118.141 704.889 118.096 704.815 118.066C704.487 117.918 704.16 117.784 703.817 117.665C703.713 117.635 703.623 117.591 703.519 117.561C703.206 117.457 702.908 117.368 702.596 117.293C702.447 117.249 702.313 117.219 702.164 117.174C701.896 117.115 701.613 117.07 701.345 117.026C701.151 116.996 700.942 116.966 700.749 116.936C700.51 116.907 700.272 116.892 700.019 116.877C699.781 116.862 699.542 116.847 699.304 116.847C699.215 116.847 699.125 116.832 699.021 116.832C698.872 116.832 698.738 116.847 698.604 116.847C698.366 116.847 698.142 116.862 697.904 116.877C697.636 116.892 697.368 116.922 697.114 116.966C696.921 116.996 696.742 117.026 696.548 117.055C696.251 117.115 695.938 117.174 695.64 117.249C695.55 117.278 695.446 117.278 695.357 117.308L668.77 124.414V78.953C668.77 78.8044 668.755 78.6557 668.74 78.5071C668.74 78.2989 668.725 78.0908 668.711 77.8678C668.681 77.5705 668.651 77.2732 668.606 76.9758C668.591 76.8272 668.562 76.6785 668.532 76.515C668.472 76.1731 668.398 75.8163 668.308 75.4743C668.293 75.4149 668.279 75.3554 668.264 75.2811C668.249 75.2365 668.234 75.2067 668.219 75.1621C668.115 74.7905 667.996 74.4337 667.876 74.0918C667.847 74.0026 667.802 73.8985 667.772 73.8093C667.638 73.4823 667.504 73.1552 667.34 72.843C667.281 72.7241 667.236 72.62 667.176 72.5011C667.027 72.2186 666.878 71.951 666.715 71.6686C666.64 71.5348 666.551 71.401 666.476 71.2672C666.312 71.0293 666.149 70.7915 665.97 70.5536C665.866 70.4198 665.761 70.2711 665.657 70.1373C665.478 69.9143 665.285 69.7062 665.106 69.4981C664.987 69.3792 664.883 69.2454 664.763 69.1264C664.555 68.9183 664.332 68.7102 664.123 68.5169C664.019 68.4129 663.9 68.3088 663.795 68.2196C663.542 68.0115 663.289 67.8182 663.036 67.6249C662.931 67.5506 662.842 67.4763 662.738 67.4019C662.455 67.2087 662.157 67.0154 661.859 66.837C661.77 66.7924 661.695 66.733 661.606 66.6884C661.293 66.51 660.98 66.3464 660.653 66.1978C660.563 66.1532 660.489 66.1086 660.399 66.0788C660.087 65.9302 659.759 65.8113 659.431 65.6923C659.327 65.6477 659.208 65.6031 659.104 65.5734C658.806 65.4693 658.508 65.395 658.195 65.3058C658.046 65.2612 657.882 65.2166 657.733 65.1869C657.465 65.1274 657.197 65.0828 656.929 65.0382C656.72 65.0085 656.527 64.9639 656.318 64.949C656.08 64.9193 655.842 64.9044 655.618 64.8895C655.38 64.8747 655.127 64.8598 654.888 64.8598C654.799 64.8598 654.71 64.8449 654.62 64.8449C654.486 64.8449 654.352 64.8598 654.203 64.8598C653.965 64.8598 653.727 64.8747 653.488 64.8895C653.22 64.9044 652.967 64.9341 652.699 64.9787C652.505 65.0085 652.327 65.0382 652.133 65.0679C651.835 65.1274 651.522 65.1869 651.224 65.2612C651.135 65.2909 651.046 65.2909 650.956 65.3207L408.622 130.123L166.317 65.3207C166.228 65.2909 166.139 65.2909 166.049 65.2612C165.736 65.1869 165.439 65.1125 165.126 65.0679C164.947 65.0382 164.753 65.0085 164.575 64.9787C164.307 64.949 164.038 64.9044 163.77 64.8895C163.532 64.8747 163.309 64.8598 163.07 64.8598C162.921 64.8449 162.787 64.8301 162.653 64.8301C162.564 64.8301 162.474 64.8449 162.37 64.8449C162.132 64.8449 161.879 64.8598 161.64 64.8747C161.402 64.8895 161.164 64.9044 160.925 64.9341C160.717 64.9639 160.508 64.9936 160.315 65.0233C160.047 65.0679 159.779 65.1125 159.51 65.172C159.362 65.2017 159.198 65.2463 159.049 65.2909C158.751 65.3653 158.438 65.4545 158.14 65.5585C158.021 65.6031 157.917 65.6329 157.812 65.6775C157.5 65.8113 157.172 65.9302 156.859 66.0788C156.77 66.1234 156.681 66.168 156.591 66.2126C156.263 66.3613 155.951 66.5248 155.638 66.7032C155.549 66.7478 155.459 66.8073 155.37 66.8668C155.072 67.0452 154.789 67.2235 154.506 67.4168C154.402 67.4911 154.297 67.5655 154.208 67.6398C153.955 67.8331 153.702 68.0263 153.463 68.2345C153.344 68.3385 153.24 68.4426 153.121 68.5466C152.897 68.7399 152.689 68.948 152.48 69.1562C152.361 69.2751 152.242 69.4089 152.123 69.5427C151.944 69.7508 151.75 69.9589 151.572 70.1671C151.467 70.3009 151.363 70.4495 151.259 70.5982C151.095 70.8212 150.916 71.0591 150.767 71.2969C150.678 71.4307 150.604 71.5645 150.514 71.7132C150.35 71.9808 150.201 72.2484 150.052 72.5308C149.993 72.6497 149.933 72.7687 149.874 72.8876C149.725 73.1998 149.591 73.512 149.457 73.839C149.412 73.9431 149.382 74.0472 149.338 74.1512C149.218 74.4932 149.099 74.85 148.995 75.2067C148.98 75.2513 148.965 75.2959 148.95 75.3405C148.935 75.4149 148.92 75.4743 148.906 75.5487C148.816 75.8906 148.742 76.2325 148.682 76.5596C148.652 76.7231 148.637 76.8718 148.608 77.0353C148.563 77.3178 148.533 77.6151 148.518 77.8975C148.503 78.1205 148.489 78.3287 148.489 78.5517C148.489 78.7003 148.474 78.8341 148.474 78.9828V123.418L125.804 117.353C125.715 117.323 125.64 117.323 125.551 117.293C125.238 117.219 124.925 117.145 124.613 117.085C124.434 117.055 124.255 117.026 124.076 116.996C123.808 116.951 123.525 116.922 123.257 116.907C123.034 116.892 122.795 116.877 122.572 116.877C122.423 116.877 122.289 116.862 122.14 116.862C122.051 116.862 121.946 116.877 121.857 116.877C121.619 116.877 121.38 116.892 121.142 116.907C120.904 116.922 120.665 116.936 120.427 116.966C120.219 116.996 120.025 117.026 119.817 117.055C119.548 117.1 119.28 117.145 119.012 117.204C118.863 117.234 118.714 117.278 118.55 117.323C118.253 117.397 117.94 117.486 117.642 117.591C117.538 117.62 117.418 117.665 117.314 117.709C116.987 117.828 116.674 117.947 116.361 118.096C116.272 118.141 116.182 118.185 116.093 118.215C115.795 118.349 115.482 118.512 115.169 118.691C115.08 118.735 114.991 118.795 114.901 118.854C114.603 119.033 114.32 119.211 114.037 119.404C113.933 119.479 113.829 119.553 113.725 119.642C113.471 119.835 113.218 120.029 112.98 120.222C112.861 120.326 112.742 120.43 112.622 120.549C112.414 120.742 112.205 120.935 111.997 121.144C111.878 121.277 111.759 121.411 111.639 121.545C111.461 121.753 111.282 121.946 111.103 122.169C110.984 122.318 110.88 122.467 110.776 122.615C110.612 122.838 110.448 123.061 110.299 123.299C110.21 123.433 110.12 123.582 110.031 123.73C109.882 123.983 109.718 124.251 109.584 124.518C109.524 124.637 109.465 124.771 109.405 124.905C109.256 125.202 109.122 125.514 109.003 125.826C108.958 125.931 108.929 126.049 108.884 126.153C108.765 126.495 108.646 126.837 108.556 127.179C108.541 127.224 108.526 127.268 108.512 127.313C108.497 127.387 108.482 127.462 108.467 127.536C108.377 127.863 108.318 128.19 108.258 128.532C108.229 128.696 108.199 128.874 108.184 129.038C108.139 129.32 108.109 129.588 108.094 129.87C108.08 130.093 108.065 130.331 108.065 130.554C108.065 130.688 108.05 130.836 108.05 130.97V263.191V263.206V517.36C108.05 517.494 108.065 517.627 108.065 517.761C108.065 517.999 108.08 518.237 108.094 518.46C108.109 518.727 108.154 518.995 108.184 519.278C108.214 519.456 108.229 519.634 108.258 519.798C108.318 520.125 108.392 520.452 108.467 520.764C108.482 520.838 108.497 520.913 108.512 520.987C108.526 521.032 108.541 521.091 108.556 521.136C108.646 521.478 108.765 521.82 108.884 522.147C108.929 522.266 108.973 522.385 109.018 522.503C109.137 522.816 109.271 523.113 109.42 523.41C109.48 523.544 109.539 523.678 109.614 523.812C109.748 524.079 109.897 524.332 110.046 524.585C110.135 524.733 110.224 524.882 110.314 525.031C110.463 525.254 110.627 525.477 110.776 525.7C110.895 525.848 110.999 526.012 111.118 526.161C111.282 526.369 111.461 526.562 111.639 526.755C111.759 526.889 111.893 527.038 112.012 527.171C112.205 527.365 112.414 527.558 112.622 527.751C112.742 527.87 112.861 527.974 112.995 528.093C113.233 528.286 113.471 528.48 113.725 528.658C113.829 528.747 113.948 528.822 114.052 528.911C114.32 529.104 114.603 529.282 114.901 529.446C114.991 529.505 115.095 529.565 115.184 529.624C115.482 529.803 115.795 529.951 116.108 530.1C116.197 530.145 116.286 530.189 116.391 530.234C116.704 530.368 117.016 530.487 117.329 530.606C117.448 530.65 117.553 530.695 117.672 530.739C117.97 530.843 118.267 530.918 118.565 530.992C118.729 531.037 118.878 531.081 119.042 531.111C119.31 531.171 119.578 531.215 119.831 531.26C120.04 531.289 120.248 531.334 120.457 531.349C120.695 531.379 120.934 531.394 121.157 531.408C121.395 531.423 121.634 531.438 121.887 531.438C121.976 531.438 122.066 531.453 122.17 531.453C122.319 531.453 122.453 531.438 122.587 531.438C122.825 531.438 123.049 531.423 123.287 531.408C123.555 531.394 123.823 531.349 124.091 531.319C124.27 531.289 124.449 531.275 124.627 531.23C124.94 531.171 125.253 531.111 125.566 531.022C125.655 531.007 125.73 530.992 125.819 530.962L148.489 524.897V569.332C148.489 569.481 148.503 569.615 148.503 569.763C148.503 569.986 148.518 570.209 148.533 570.417C148.563 570.7 148.593 570.997 148.623 571.28C148.652 571.443 148.667 571.607 148.697 571.755C148.757 572.097 148.831 572.439 148.92 572.766C148.935 572.841 148.95 572.9 148.965 572.974C148.98 573.019 148.995 573.064 149.01 573.108C149.114 573.465 149.218 573.807 149.352 574.149C149.397 574.253 149.427 574.357 149.472 574.461C149.591 574.788 149.74 575.1 149.889 575.413C149.948 575.532 150.008 575.65 150.067 575.769C150.216 576.052 150.365 576.319 150.529 576.572C150.618 576.706 150.693 576.855 150.782 576.988C150.931 577.226 151.11 577.464 151.274 577.687C151.378 577.836 151.482 577.97 151.587 578.118C151.765 578.341 151.944 578.549 152.123 578.743C152.242 578.876 152.361 579.01 152.48 579.129C152.689 579.337 152.897 579.531 153.121 579.739C153.24 579.843 153.344 579.947 153.463 580.051C153.702 580.259 153.955 580.452 154.223 580.645C154.327 580.72 154.417 580.794 154.521 580.868C154.804 581.062 155.102 581.255 155.385 581.433C155.474 581.493 155.563 581.537 155.653 581.597C155.966 581.775 156.278 581.939 156.606 582.088C156.695 582.132 156.785 582.177 156.874 582.221C157.187 582.355 157.515 582.489 157.827 582.608C157.932 582.652 158.051 582.697 158.155 582.727C158.453 582.831 158.751 582.905 159.049 582.994C159.198 583.039 159.362 583.084 159.51 583.113C159.779 583.173 160.047 583.217 160.315 583.262C160.523 583.292 160.732 583.336 160.94 583.351C161.179 583.381 161.402 583.396 161.64 583.411C161.879 583.425 162.132 583.44 162.385 583.455C162.474 583.455 162.564 583.47 162.653 583.47C162.787 583.47 162.921 583.455 163.07 583.455C163.309 583.455 163.547 583.44 163.785 583.425C164.053 583.411 164.307 583.381 164.575 583.336C164.768 583.307 164.947 583.277 165.141 583.247C165.439 583.188 165.751 583.128 166.049 583.054C166.139 583.024 166.228 583.024 166.317 582.994L408.622 518.192L650.926 582.994C651.016 583.024 651.105 583.024 651.209 583.054C651.507 583.128 651.82 583.188 652.118 583.247C652.312 583.277 652.49 583.307 652.684 583.336C652.952 583.366 653.205 583.396 653.473 583.425C653.712 583.44 653.95 583.455 654.188 583.455C654.322 583.455 654.456 583.47 654.605 583.47C654.695 583.47 654.784 583.455 654.874 583.455C655.127 583.455 655.365 583.44 655.603 583.425C655.842 583.411 656.08 583.396 656.303 583.366C656.512 583.336 656.72 583.307 656.914 583.277C657.182 583.232 657.45 583.188 657.718 583.128C657.867 583.098 658.031 583.054 658.18 583.009C658.478 582.935 658.791 582.846 659.089 582.742C659.193 582.712 659.312 582.667 659.416 582.623C659.744 582.504 660.072 582.385 660.384 582.236C660.474 582.192 660.548 582.147 660.638 582.117C660.965 581.969 661.278 581.805 661.591 581.627C661.68 581.582 661.755 581.523 661.844 581.478C662.142 581.3 662.44 581.106 662.723 580.913C662.827 580.839 662.917 580.764 663.006 580.69C663.274 580.497 663.527 580.304 663.766 580.095C663.885 579.991 663.989 579.902 664.093 579.798C664.317 579.605 664.525 579.397 664.734 579.189C664.853 579.07 664.957 578.936 665.076 578.817C665.27 578.609 665.449 578.401 665.627 578.178C665.732 578.044 665.836 577.91 665.94 577.761C666.119 577.524 666.283 577.301 666.447 577.048C666.536 576.914 666.61 576.78 666.685 576.646C666.849 576.379 667.013 576.096 667.147 575.814C667.206 575.695 667.251 575.591 667.31 575.472C667.459 575.16 667.608 574.833 667.728 574.506C667.772 574.417 667.802 574.312 667.832 574.223C667.966 573.866 668.07 573.51 668.174 573.153C668.189 573.108 668.204 573.079 668.219 573.034C668.234 572.974 668.249 572.915 668.264 572.841C668.353 572.499 668.428 572.142 668.487 571.8C668.517 571.651 668.532 571.503 668.562 571.339C668.606 571.042 668.636 570.745 668.666 570.462C668.681 570.254 668.696 570.046 668.696 569.823C668.696 569.674 668.725 569.526 668.725 569.377V523.901L695.312 531.007C695.402 531.037 695.491 531.037 695.58 531.066C695.893 531.141 696.191 531.215 696.504 531.26C696.683 531.289 696.876 531.319 697.055 531.349C697.323 531.379 697.591 531.423 697.859 531.438C698.097 531.453 698.321 531.468 698.559 531.468C698.693 531.468 698.842 531.483 698.976 531.483C699.066 531.483 699.155 531.468 699.259 531.468C699.498 531.468 699.751 531.453 699.989 531.438C700.227 531.423 700.466 531.408 700.704 531.379C700.913 531.349 701.106 531.319 701.315 531.289C701.583 531.245 701.851 531.2 702.119 531.141C702.268 531.111 702.417 531.066 702.566 531.022C702.879 530.948 703.177 530.858 703.474 530.754C703.579 530.725 703.683 530.68 703.787 530.635C704.115 530.516 704.443 530.397 704.755 530.249C704.845 530.219 704.919 530.174 704.994 530.13C705.321 529.981 705.649 529.818 705.962 529.624C706.036 529.58 706.111 529.535 706.2 529.476C706.513 529.297 706.811 529.104 707.109 528.896C707.198 528.837 707.287 528.762 707.377 528.703C707.645 528.509 707.913 528.301 708.166 528.078C708.27 527.989 708.36 527.9 708.464 527.811C708.702 527.603 708.926 527.38 709.149 527.157C709.253 527.053 709.343 526.934 709.447 526.83C709.656 526.607 709.849 526.369 710.043 526.131C710.132 526.012 710.222 525.893 710.311 525.789C710.505 525.536 710.683 525.283 710.862 525.016C710.937 524.912 710.996 524.808 711.056 524.689C711.234 524.391 711.413 524.094 711.562 523.782C711.607 523.693 711.652 523.604 711.681 523.529C711.845 523.187 712.009 522.831 712.143 522.474C712.173 522.414 712.188 522.34 712.218 522.28C712.352 521.894 712.486 521.507 712.59 521.106C712.605 521.076 712.605 521.047 712.62 521.017C712.635 520.972 712.635 520.928 712.649 520.883C712.754 520.497 712.828 520.125 712.888 519.738C712.903 519.619 712.932 519.5 712.947 519.382C712.992 519.054 713.037 518.727 713.052 518.4C713.067 518.222 713.067 518.044 713.081 517.865C713.081 517.702 713.111 517.523 713.111 517.36V385.154C713.111 385.139 713.111 385.124 713.111 385.124V130.955C713.141 130.807 713.126 130.673 713.126 130.539ZM640.441 550.958L422.757 492.741V410.07V399.262V399.247V388.41V380.843V267.502L438.858 271.813L453.008 275.589L461.944 277.983L467.157 279.38L634.662 324.172L640.426 325.718V333.122V340.154V351.853V386.492V395.441V415.734V487.092V496.487V516.334V550.958H640.441ZM176.788 97.3575L394.472 155.574V238.245L382.288 241.501V197.081C382.288 196.976 382.273 196.872 382.273 196.753C382.288 190.51 378.133 184.786 371.803 183.106L176.788 130.94V97.3575ZM684.856 244.459L668.755 240.148L646.115 234.098L640.47 232.581L507.075 196.902L640.47 161.223L647.948 159.231L668.77 153.656L684.871 149.345V244.459H684.856ZM640.441 131.996L449.358 183.106C443.043 184.801 438.888 190.495 438.888 196.739C438.888 196.858 438.873 196.976 438.873 197.095V242.571L422.772 238.26V155.574L640.456 97.3575V131.996H640.441ZM169.296 158.175L176.788 160.182L314.101 196.902L176.788 233.622L171.158 235.123L148.489 241.189L136.32 244.459V149.36L148.503 152.615L169.296 158.175ZM136.32 403.856V385.139V383.415V374.614V273.701L148.503 270.446L171.873 264.187L176.788 262.879L353.989 215.485V249.083L176.788 296.462L172.677 297.562L158.974 301.219C152.659 302.914 148.503 308.622 148.503 314.851C148.503 314.97 148.489 315.074 148.489 315.193V333.107V377.869V386.7V407.097V495.685L136.32 498.955V403.856ZM176.788 517.36V497.528V488.133V414.678V394.371V385.436V351.839V340.139V333.107V325.704L182.552 324.158L353.974 278.31L359.157 276.927L368.124 274.534L382.273 270.758L394.457 267.502V380.843V388.41V399.247V410.085V492.756L176.788 550.958V517.36ZM668.74 408.152V387.77V378.925V333.107V315.193C668.74 315.074 668.725 314.955 668.725 314.836C668.725 308.607 664.57 302.899 658.255 301.219L644.552 297.562L640.456 296.462L467.172 250.123V215.485L640.456 261.823L645.401 263.146L668.755 269.39L684.856 273.701V374.614V383.415V403.856V498.955L668.755 494.644V408.152H668.74Z" fill="#111111"/>
</svg>
